<?xml version="1.0" encoding="UTF-8"?>
<svg width="18px" height="49px" viewBox="0 0 18 49" version="1.1" xmlns="http://www.w3.org/2000/svg" xmlns:xlink="http://www.w3.org/1999/xlink">
    <title>addCity</title>
    <g id="Mid" stroke="none" stroke-width="1" fill="none" fill-rule="evenodd">
        <g id="View-4" transform="translate(-42.000000, -291.000000)" fill="#100050" fill-rule="nonzero">
            <g id="Group-5" transform="translate(42.000000, 291.000000)">
                <path d="M8.97784946,-3.55271368e-15 C5.82627235,0.00361764811 3.27235152,2.55997637 3.26873731,5.71456186 L3.26873731,33.0856556 C0.844927457,35.0658223 -0.360570562,38.1760095 0.0948179145,41.274357 C0.787100354,46.1851441 5.32587076,49.6041465 10.2316462,48.9108744 C14.6649479,48.2843643 17.9581357,44.4822205 17.9489779,40.0009463 C17.95715,37.3215877 16.7588804,34.7816729 14.6866331,33.0856556 L14.6866331,5.71456186 C14.6833474,2.55997637 12.1294266,0.00361764811 8.97784946,-3.55271368e-15 Z M16.3179677,40.0009463 C16.3232058,44.0582985 13.0415177,47.3523277 8.98770639,47.3575968 C4.93389502,47.3631806 1.64300717,44.078031 1.63774414,40.0203501 C1.63479311,37.7044003 2.72266542,35.5226321 4.57378988,34.133128 C4.77914178,33.9788848 4.900053,33.7368315 4.900053,33.4799788 L4.900053,31.0209676 L6.53104015,31.0209676 L6.53104015,29.3884235 L4.900053,29.3884235 L4.900053,26.9392786 L6.53104015,26.9392786 L6.53104015,25.3067346 L4.900053,25.3067346 L4.900053,22.8575897 L6.53104015,22.8575897 L6.53104015,21.2250456 L4.900053,21.2250456 L4.900053,18.7759007 L6.53104015,18.7759007 L6.53104015,17.1433567 L4.900053,17.1433567 L4.900053,14.6942118 L6.53104015,14.6942118 L6.53104015,13.0616677 L4.900053,13.0616677 L4.900053,10.6125228 L6.53104015,10.6125228 L6.53104015,8.97997877 L4.900053,8.97997877 L4.900053,5.71456186 C4.900053,3.46011193 6.72554949,1.63287288 8.97784946,1.63287288 C11.2298209,1.63287288 13.0556459,3.46011193 13.0556459,5.71456186 L13.0556459,33.4816232 C13.0556459,33.7384759 13.1765571,33.9805292 13.381909,34.1344435 C15.2340191,35.5137524 16.3232058,37.6902586 16.3179677,40.0009463 L16.3179677,40.0009463 Z" id="Shape"></path>
                <path d="M9.79334299,36.0008188 L9.79334299,7.34710588 L8.16235592,7.34710588 L8.16235592,36.0008188 C5.95572617,36.4517088 4.53206234,38.6074957 4.98252235,40.8162317 C5.43298236,43.0249678 7.5867134,44.4499906 9.79334299,43.9991006 C11.9999727,43.5482107 13.4236366,41.3924238 12.9731766,39.1836877 C12.6462563,37.5804137 11.3947595,36.3280511 9.79334299,36.0008188 Z M8.97784946,42.4497624 C7.62646951,42.4497624 6.53104015,41.3532874 6.53104015,40.0009463 C6.53104015,38.6482764 7.62646951,37.5518015 8.97784946,37.5518015 C10.3292294,37.5518015 11.4246588,38.6482764 11.4246588,40.0009463 C11.4246588,41.3532874 10.3292294,42.4497624 8.97784946,42.4497624 Z" id="Shape"></path>
            </g>
        </g>
    </g>
</svg>