<?xml version="1.0" encoding="UTF-8"?>
<svg width="58px" height="49px" viewBox="0 0 58 49" version="1.1" xmlns="http://www.w3.org/2000/svg" xmlns:xlink="http://www.w3.org/1999/xlink">
    <title>coldWeather</title>
    <defs>
        <linearGradient x1="50%" y1="0%" x2="50%" y2="100%" id="linearGradient-1">
            <stop stop-color="#000000" stop-opacity="0" offset="0%"></stop>
            <stop stop-color="#000000" stop-opacity="0.5" offset="100%"></stop>
        </linearGradient>
        <path d="M25.3833491,19 L43.4103394,19 C45.9653075,18.7209207 48,16.5507998 48,13.8917319 C48,11.4832773 46.3316987,9.39548479 44.1186958,8.94253903 C43.5126576,3.92329725 39.352896,0 34.3075534,0 C30.759258,0 27.6490038,1.9038792 25.903896,4.79039673 C25.8607433,4.7895595 25.8178619,4.77755908 25.7744378,4.77755908 C22.032905,4.77755908 19,8.04139187 19,11.8887795 C19,15.6010928 21.8239263,18.7209207 25.3833491,19" id="path-2"></path>
        <path d="M8.73730873,27 L29.9336851,27 C33.8279005,27 37,23.8462589 37,20.0982892 C37,16.9445482 34.8519988,14.3089242 31.8310739,13.4500509 C31.7510834,10.63951 29.3370588,8.39596521 26.3638347,8.39596521 C25.4997174,8.39596521 24.6855023,8.59811467 23.9586164,8.93747438 C22.6728978,6.03441262 19.6549084,4 16.1364281,4 C12.2998205,4 9.05947222,6.42544439 8.01042276,9.75130926 C3.47554965,10.2725686 0,13.8945004 0,18.3501677 C0,23.0184586 3.76652419,27 8.73730873,27" id="path-3"></path>
        <filter x="-45.9%" y="-56.5%" width="191.9%" height="247.8%" filterUnits="objectBoundingBox" id="filter-4">
            <feOffset dx="0" dy="4" in="SourceAlpha" result="shadowOffsetOuter1"></feOffset>
            <feGaussianBlur stdDeviation="5" in="shadowOffsetOuter1" result="shadowBlurOuter1"></feGaussianBlur>
            <feColorMatrix values="0 0 0 0 0   0 0 0 0 0   0 0 0 0 0  0 0 0 0.14 0" type="matrix" in="shadowBlurOuter1"></feColorMatrix>
        </filter>
    </defs>
    <g id="Junior-" stroke="none" stroke-width="1" fill="none" fill-rule="evenodd">
        <g id="View-2" transform="translate(-1026.000000, -537.000000)">
            <g id="coldWeather" transform="translate(1036.000000, 539.000000)">
                <g id="cloud">
                    <use fill="#B6D6FA" xlink:href="#path-2"></use>
                    <use fill-opacity="0.1" fill="url(#linearGradient-1)" xlink:href="#path-2"></use>
                </g>
                <g id="cloud">
                    <use fill="black" fill-opacity="1" filter="url(#filter-4)" xlink:href="#path-3"></use>
                    <use fill="#FFFFFF" fill-rule="evenodd" xlink:href="#path-3"></use>
                </g>
                <circle id="Oval-2-Copy" fill="#E9E9E9" cx="39" cy="29" r="2"></circle>
                <circle id="Oval-2-Copy-2" fill="#E9E9E9" cx="7" cy="40" r="2"></circle>
                <circle id="Oval-2-Copy-3" fill="#E9E9E9" cx="41" cy="46" r="1"></circle>
                <circle id="Oval-2-Copy-3" fill="#DDDDDD" cx="20" cy="31" r="1"></circle>
            </g>
        </g>
    </g>
</svg>