<?xml version="1.0" encoding="UTF-8"?>
<svg width="151px" height="151px" viewBox="0 0 151 151" version="1.1" xmlns="http://www.w3.org/2000/svg" xmlns:xlink="http://www.w3.org/1999/xlink">
    <title>confirm</title>
    <g id="Mid" stroke="none" stroke-width="1" fill="none" fill-rule="evenodd">
        <g id="View-3.2" transform="translate(-608.000000, -233.000000)">
            <g id="Group-9" transform="translate(385.000000, 172.000000)">
                <g id="confirm" transform="translate(223.000000, 61.000000)">
                    <path d="M128.886463,22.1132422 C114.6264,7.85347461 95.6667578,0 75.5,0 C55.3329473,0 36.3730098,7.85347461 22.1132422,22.1132422 C7.85317969,36.3733047 0,55.3332422 0,75.5 C0,95.6667578 7.85317969,114.6264 22.1132422,128.886463 C36.3733047,143.146525 55.3329473,151 75.5,151 C95.6667578,151 114.6264,143.146525 128.886463,128.886463 C143.146525,114.6264 151,95.6667578 151,75.5 C151,55.3332422 143.146525,36.3735996 128.886463,22.1132422 Z M75.5,142.152344 C38.7477207,142.152344 8.84765625,112.252279 8.84765625,75.5 C8.84765625,38.7477207 38.7477207,8.84765625 75.5,8.84765625 C112.252279,8.84765625 142.152344,38.7477207 142.152344,75.5 C142.152344,112.252279 112.252279,142.152344 75.5,142.152344 Z" id="Shape" fill="#FF4E00" fill-rule="nonzero"></path>
                    <circle id="Oval" fill="#FF4E00" cx="76" cy="76" r="61"></circle>
                    <path d="M111.699625,51.2942367 C109.966087,49.5685386 107.154897,49.5685386 105.421359,51.2945314 L66.2165309,90.3287262 L45.5789371,69.7809544 C43.8453993,68.0549616 41.034209,68.0549616 39.3003753,69.7809544 C37.5665416,71.5069472 37.5665416,74.3059022 39.3003753,76.0321897 L63.077102,99.7054317 C63.9440189,100.568575 65.0802749,101 66.2162349,101 C67.352195,101 68.488747,100.568281 69.3553678,99.7054317 L111.699625,57.545472 C113.433458,55.8194792 113.433458,53.0205242 111.699625,51.2942367 Z" id="Path" fill="#FFFFFF" fill-rule="nonzero"></path>
                </g>
            </g>
        </g>
    </g>
</svg>