<?xml version="1.0" encoding="UTF-8"?>
<svg width="22px" height="22px" viewBox="0 0 22 22" version="1.1" xmlns="http://www.w3.org/2000/svg" xmlns:xlink="http://www.w3.org/1999/xlink">
    <title>900930</title>
    <g id="Challenge-3" stroke="none" stroke-width="1" fill="none" fill-rule="evenodd">
        <g id="1" transform="translate(-480.000000, -118.000000)" fill="#979797" fill-rule="nonzero">
            <g id="Group-10" transform="translate(156.000000, 105.000000)">
                <g id="900930" transform="translate(324.000000, 13.000000)">
                    <path d="M19.5209088,2.83049893 C16.2367548,-0.326178205 10.9047239,-0.333299209 7.61147756,2.81466267 C4.43382555,5.85208957 4.29938131,10.7443785 7.30572086,13.9379892 L6.66260614,14.5544343 C6.1430138,14.056336 5.30053352,14.0562297 4.78088573,14.5542749 C4.78083029,14.554328 4.78077485,14.5543811 4.78071941,14.5544343 L0.389798215,18.7632663 C-0.129849568,19.2613114 -0.12996045,20.0688545 0.389631892,20.5669527 C0.389687333,20.5670059 0.389742774,20.567059 0.389798215,20.5671121 L1.01694595,21.1682524 C1.53653829,21.6661381 2.37879681,21.6661381 2.89838915,21.1682524 L7.28931035,16.9594204 C7.80895813,16.4613753 7.80906901,15.6538322 7.28947667,15.155734 C7.28942123,15.1556808 7.28936579,15.1556277 7.28931035,15.1555745 L7.93242507,14.5391294 C11.3830682,17.5281973 16.7082798,17.2699812 19.8266655,13.9624876 C22.8387709,10.7676546 22.7042158,5.86898867 19.5209088,2.83049893 Z M6.66260614,16.357855 L2.27168495,20.566687 C2.0984875,20.7326489 1.81773466,20.7326489 1.64453721,20.566687 L1.01738948,19.9651216 C0.844524675,19.7991597 0.844524675,19.5303684 1.01738948,19.3644065 L5.40831067,15.1555745 C5.58372576,14.9948205 5.86004332,14.9948205 6.03545841,15.1555745 L6.66260614,15.7571399 C6.83547094,15.9231018 6.83547094,16.1918931 6.66260614,16.357855 Z M18.8942046,13.6527239 C15.9496262,16.4750859 11.1755528,16.4750327 8.23108533,13.6525645 C5.28661784,10.8300962 5.28667329,6.25400114 8.23125165,3.43163918 C11.1757746,0.609330361 15.9496817,0.609330361 18.8942046,3.43163918 C21.8339596,6.25602053 21.8339596,10.8283426 18.8942046,13.6527239 Z" id="Shape"></path>
                    <path d="M17.6836877,3.20833333 L17.6836877,3.20833333 L17.2173913,3.81935802 C18.8887126,6.01476885 18.8887126,9.56856448 17.2173913,11.7639753 L17.6836877,12.375 C19.6126838,9.84220761 19.6126838,5.74112572 17.6836877,3.20833333 Z" id="Path"></path>
                </g>
            </g>
        </g>
    </g>
</svg>