<?xml version="1.0" encoding="UTF-8"?>
<svg width="152px" height="137px" viewBox="0 0 152 137" version="1.1" xmlns="http://www.w3.org/2000/svg" xmlns:xlink="http://www.w3.org/1999/xlink">
    <title>warning</title>
    <g id="Junior-" stroke="none" stroke-width="1" fill="none" fill-rule="evenodd">
        <g id="View-3" transform="translate(-606.000000, -216.000000)" fill-rule="nonzero">
            <g id="Group-9" transform="translate(385.000000, 172.000000)">
                <g id="Group-6" transform="translate(120.000000, 44.000000)">
                    <g id="warning" transform="translate(101.000000, 0.000000)">
                        <path d="M150.356761,118.048416 L87.0242641,6.41927167 C84.7870162,2.43388093 80.566629,-0.023362177 76,0.000295108256 C71.4313392,-0.0309973073 67.2073592,2.42833764 64.9757359,6.41927167 L1.64323941,118.048416 C-0.576030447,121.977404 -0.545506347,126.790316 1.72341887,130.690779 C3.99234409,134.591241 8.1587267,136.993144 12.6675035,137 L139.332496,137 C143.841273,136.993144 148.007656,134.591241 150.276581,130.690779 C152.545506,126.790316 152.57603,121.977404 150.356761,118.048416 Z M145.90904,128.120409 C144.57873,130.499142 142.055528,131.959201 139.332496,131.926504 L12.6675035,131.926504 C9.96027483,131.947046 7.45288514,130.502323 6.11123426,128.148316 C4.69735792,125.824303 4.67205094,122.910884 6.0453421,120.562609 L69.3854415,8.93346444 C70.7350765,6.54757637 73.2623238,5.07280234 76.0012672,5.07280234 C78.7402105,5.07280234 81.2674578,6.54757637 82.6170928,8.93346444 L145.949589,120.562609 C147.305368,122.903043 147.289854,125.794689 145.90904,128.120409 Z" id="Shape" fill="#FF4E00"></path>
                        <path d="M141.651652,123.203218 L78.2002748,11.294011 C77.7669272,10.4760195 76.9077414,9.97520731 75.9836661,10.0009467 C75.5401479,9.99606883 75.1026988,10.1056172 74.7141307,10.3198922 C74.3209483,10.5551263 73.9968444,10.8903111 73.7746746,11.2914676 L10.3106016,123.213392 C9.88189704,124.003145 9.89792129,124.960226 10.3528227,125.735134 C10.8077242,126.510043 11.6348999,126.989324 12.5322885,126.999018 L139.435044,126.999018 C140.35538,127.025298 141.210001,126.522132 141.633879,125.703372 C142.115551,124.941651 142.122446,123.971733 141.651652,123.203218 Z M75.9836661,119.367785 C71.776796,119.367785 68.3664539,115.95164 68.3664539,111.737611 C68.3664539,107.523583 71.776796,104.107438 75.9836661,104.107438 C80.1905362,104.107438 83.6008783,107.523583 83.6008783,111.737611 C83.6008783,115.95164 80.1905362,119.367785 75.9836661,119.367785 Z M81.9834902,93.5320181 C81.7011842,96.6403544 79.0995376,99.020656 75.9836661,99.020656 L75.9836661,99.020656 C72.8677946,99.020656 70.266148,96.6403544 69.983842,93.5320181 L65.9771883,43.8595903 C65.7216673,41.0442584 66.6608854,38.2512061 68.5648108,36.1645033 C70.4687363,34.0778005 73.161526,32.8901713 75.9836661,32.8924846 L75.9836661,32.8924846 C78.8044806,32.8924846 81.495231,34.0808774 83.3974717,36.1673221 C85.2997125,38.2537667 86.2379266,41.0455817 85.9825266,43.8595903 L81.9834902,93.5320181 Z" id="Shape" fill="#FF4E00"></path>
                        <path d="M121.877118,51.944601 C120.884524,51.7423218 120.106433,51.0009629 119.886996,50.0484299 C118.827933,45.4305554 116.064167,41.3382429 112.107665,38.5295633 C111.33543,38.0117544 110.916563,37.131548 111.013907,36.2311438 C111.111251,35.3307397 111.709448,34.5521953 112.575937,34.1981871 C113.442425,33.8441788 114.440497,33.9705589 115.182131,34.5281943 C120.144459,38.0499569 123.610768,43.1820835 124.938644,48.9734352 C125.246648,50.3154507 124.364912,51.6434552 122.969226,51.9396242 C122.609991,52.0184101 122.237113,52.0201093 121.877118,51.944601 Z" id="Path" fill="#11004F"></path>
                        <path d="M133.870271,51.9519489 C132.766533,51.7243229 131.942647,50.8345425 131.833327,49.7520906 C130.842462,40.0643355 125.030946,31.4434411 116.247854,26.6323537 C115.048582,25.9314186 114.645773,24.4383388 115.338967,23.2634137 C116.032162,22.0884885 117.569729,21.6582183 118.808288,22.2925651 C129.054177,27.9033794 135.833345,37.9595986 136.987884,49.2601813 C137.054301,49.9198636 136.845796,50.5779241 136.408308,51.089381 C135.970819,51.6008379 135.340243,51.9237257 134.655505,51.9869069 C134.393397,52.0124005 134.128823,52.0006219 133.870271,51.9519489 Z" id="Path" fill="#11004F"></path>
                        <path d="M145.961608,51.9440755 C144.830737,51.7018685 144.011462,50.719367 143.977001,49.5640694 C143.545805,34.6364031 134.81295,21.1977617 121.342427,14.7326301 C120.144815,14.1025798 119.661917,12.6376344 120.250334,11.4195979 C120.838751,10.2015614 122.286951,9.66831111 123.525496,10.2136312 C138.686252,17.4886399 148.514716,32.613246 148.998811,49.4134361 C149.041079,50.7992656 147.95124,51.9569707 146.564527,51.9993077 C146.362104,52.0039293 146.159816,51.9853982 145.961608,51.9440755 L145.961608,51.9440755 Z" id="Path" fill="#11004F"></path>
                    </g>
                </g>
            </g>
        </g>
    </g>
</svg>